<?xml version="1.0" encoding="utf-8"?>
<!-- Generator: Adobe Illustrator 15.1.0, SVG Export Plug-In . SVG Version: 6.00 Build 0)  -->
<!DOCTYPE svg PUBLIC "-//W3C//DTD SVG 1.1//EN" "http://www.w3.org/Graphics/SVG/1.1/DTD/svg11.dtd">
<svg version="1.1" id="Layer_1" xmlns="http://www.w3.org/2000/svg" xmlns:xlink="http://www.w3.org/1999/xlink" x="0px" y="0px"
	 width="110px" height="45px" viewBox="0 0 110 45" enable-background="new 0 0 110 45" xml:space="preserve">
<g>
	<polygon points="68.199,1.874 67.91,1.874 54.965,14.819 42.02,1.874 41.729,1.874 2.6,41.002 2.6,41.589 4.051,43.038 
		4.566,43.038 41.584,6.021 42.162,6.021 52.963,16.822 28.768,41.018 28.768,41.573 30.232,43.038 30.75,43.038 54.965,18.822 
		79.266,43.126 79.607,43.126 81.217,41.518 81.217,41.074 56.965,16.822 67.766,6.021 68.344,6.021 105.447,43.126 105.789,43.126 
		107.398,41.518 107.398,41.074 	"/>
</g>
</svg>
