<?xml version="1.0" encoding="utf-8"?>
<!-- Generator: Adobe Illustrator 15.1.0, SVG Export Plug-In . SVG Version: 6.00 Build 0)  -->
<!DOCTYPE svg PUBLIC "-//W3C//DTD SVG 1.1//EN" "http://www.w3.org/Graphics/SVG/1.1/DTD/svg11.dtd">
<svg version="1.1" id="Layer_1" xmlns="http://www.w3.org/2000/svg" xmlns:xlink="http://www.w3.org/1999/xlink" x="0px" y="0px"
	 width="225px" height="115px" viewBox="194.88 195.739 225 115" enable-background="new 194.88 195.739 225 115"
	 xml:space="preserve">
<g>
	<g>
		<polygon fill="#302434" points="320.581,197.611 320.291,197.611 307.346,210.557 294.399,197.611 294.109,197.611 
			254.98,236.739 254.98,237.325 256.432,238.775 256.948,238.775 293.966,201.759 294.543,201.759 305.344,212.559 
			281.147,236.755 281.147,237.311 282.613,238.775 283.131,238.775 307.346,214.56 331.647,238.863 331.989,238.863 
			333.599,237.255 333.599,236.812 309.347,212.559 320.147,201.759 320.726,201.759 357.829,238.863 358.171,238.863 
			359.78,237.255 359.78,236.812 		"/>
	</g>
	<g>
		<path fill="#302434" d="M211.811,295.195c0,4.021-2.011,8.042-8.041,8.042s-7.64-4.422-7.64-7.235V295.6l0.402-0.403h1.606
			l0.403,0.403v0.402c0,2.813,1.606,5.226,5.227,5.226s5.63-2.011,5.63-6.031v-20.105l0.4-0.402h1.61l0.399,0.402v20.104H211.811z"
			/>
		<path fill="#302434" d="M214.765,292.782c0-6.835,4.021-10.453,9.248-10.453c5.228,0,9.247,3.618,9.247,10.453
			c0,6.836-4.021,10.454-9.247,10.454C218.785,303.237,214.765,299.618,214.765,292.782z M217.177,292.782
			c0,5.228,2.815,8.443,6.836,8.443c4.021,0,6.836-3.217,6.836-8.443c0-5.228-2.814-8.443-6.836-8.443
			C219.992,284.339,217.177,287.556,217.177,292.782z"/>
		<path fill="#302434" d="M236.77,282.731h1.607l0.403,0.402v12.465c0,4.021,2.01,5.628,4.822,5.628
			c4.426,0,6.435-2.813,6.435-7.237v-10.854l0.402-0.402h1.607l0.402,0.402v19.3l-0.402,0.402h-1.205l-0.402-0.402l-0.402-2.413
			h-0.4c-1.207,2.011-3.62,3.217-6.434,3.217c-4.021,0-6.837-2.412-6.837-7.639v-12.465L236.77,282.731z"/>
		<path fill="#302434" d="M266.762,282.731l0.402,0.402v1.205l-0.402,0.402h-2.009c-4.022,0-5.63,2.813-5.63,6.836v10.855
			l-0.401,0.402h-1.608l-0.402-0.402v-19.3l0.402-0.402h1.207l0.401,0.402l0.401,2.411h0.399c1.207-2.009,3.219-2.813,5.632-2.813
			L266.762,282.731L266.762,282.731z"/>
		<path fill="#302434" d="M286.04,302.836h-1.608l-0.401-0.402v-12.062c0-4.023-2.012-6.033-5.229-6.033
			c-4.422,0-6.434,2.813-6.434,7.238v10.855l-0.401,0.402h-1.607l-0.403-0.402v-19.3l0.403-0.402h1.205l0.402,0.402l0.401,2.411
			h0.402c1.206-2.009,3.617-3.216,6.435-3.216c4.422,0,7.237,2.813,7.237,8.043v12.062L286.04,302.836z"/>
		<path fill="#302434" d="M292.396,293.587l-0.402,0.401c0,2.412,1.607,7.237,6.836,7.237c3.218,0,4.824-1.607,5.629-4.021
			l0.402-0.402h1.607l0.402,0.402c-0.402,2.412-2.413,6.03-8.042,6.03c-6.434,0-9.248-4.824-9.248-10.455v-0.803
			c0-5.631,3.216-9.649,8.846-9.649c5.629,0,8.848,4.02,8.848,9.649v1.205l-0.402,0.402h-14.476V293.587z M304.861,291.175
			c0-2.814-1.608-6.836-6.435-6.836s-6.434,4.021-6.434,6.836l0.402,0.402h12.062L304.861,291.175z"/>
		<path fill="#302434" d="M319.027,302.03c-1.608,4.425-2.814,6.837-7.237,6.837h-0.805l-0.402-0.4v-1.207l0.402-0.402h0.805
			c2.814,0,3.618-2.012,4.021-3.218v-0.803l-6.836-18.497v-1.205l0.401-0.402h1.206l0.402,0.402l6.031,16.887h0.401l6.031-16.887
			l0.402-0.402h1.206l0.401,0.402v1.205L319.027,302.03z"/>
		<path fill="#302434" d="M357.629,302.836h-1.608l-0.402-0.402v-23.321h-0.402l-10.051,23.321l-0.403,0.402h-2.01l-0.404-0.402
			l-10.051-23.321h-0.4v23.321l-0.403,0.402h-1.608l-0.4-0.402v-27.343l0.4-0.402h2.815l0.403,0.402l10.451,24.527h0.404
			l10.452-24.527l0.403-0.402h2.814l0.401,0.402v27.343L357.629,302.836z"/>
		<path fill="#302434" d="M376.711,302.836h-1.207l-0.402-0.402l-0.4-2.011H374.3c-0.804,1.207-2.414,2.813-6.435,2.813
			c-4.423,0-6.836-2.412-6.836-6.03c0-4.424,3.217-6.435,8.442-6.435c2.413,0,4.827,0.402,4.827,0.402l0.401-0.402v-1.206
			c0-3.617-1.205-5.228-5.229-5.228c-4.02,0-5.227,2.01-5.227,4.021l-0.401,0.402h-1.607l-0.402-0.402
			c0-3.217,2.412-6.03,7.639-6.03c6.032,0,7.642,2.813,7.642,7.236v12.867L376.711,302.836z M374.7,293.587l-0.401-0.402
			c0,0-2.011-0.402-4.424-0.402c-4.825,0-6.434,1.609-6.434,4.425c0,2.412,1.207,4.021,4.822,4.021c4.427,0,6.437-3.217,6.437-6.031
			V293.587z"/>
		<path fill="#302434" d="M395.063,285.545h0.403v-10.454l0.4-0.402h1.608l0.402,0.402v27.343l-0.402,0.402h-1.207l-0.401-0.402
			l-0.4-2.413h-0.403c-0.804,1.609-2.814,3.217-6.434,3.217c-5.63,0-8.441-4.422-8.441-10.454c0-6.03,2.812-10.453,8.441-10.453
			C392.249,282.329,394.261,283.937,395.063,285.545z M382.599,292.782c0,5.63,2.413,8.443,6.435,8.443
			c4.021,0,6.436-2.813,6.436-8.443s-2.414-8.443-6.436-8.443S382.599,287.153,382.599,292.782z"/>
		<path fill="#302434" d="M403.755,293.587l-0.402,0.401c0,2.412,1.607,7.237,6.837,7.237c3.216,0,4.822-1.607,5.63-4.021
			l0.399-0.402h1.608l0.4,0.402c-0.4,2.412-2.409,6.03-8.039,6.03c-6.435,0-9.249-4.824-9.249-10.455v-0.803
			c0-5.631,3.216-9.649,8.845-9.649c5.631,0,8.847,4.02,8.847,9.649v1.205l-0.402,0.402h-14.474V293.587z M416.219,291.175
			c0-2.814-1.606-6.836-6.435-6.836c-4.824,0-6.433,4.021-6.433,6.836l0.402,0.402h12.063L416.219,291.175z"/>
	</g>
</g>
</svg>
